<mxfile host="Electron" agent="Mozilla/5.0 (Windows NT 10.0; Win64; x64) AppleWebKit/537.36 (KHTML, like Gecko) draw.io/26.0.4 Chrome/128.0.6613.186 Electron/32.2.5 Safari/537.36" version="26.0.4">
  <diagram name="Page-1" id="74ZNfIKCV-v6awrbgqZK">
    <mxGraphModel dx="3202" dy="1844" grid="1" gridSize="10" guides="1" tooltips="1" connect="1" arrows="1" fold="1" page="1" pageScale="1" pageWidth="1654" pageHeight="1169" math="0" shadow="0">
      <root>
        <mxCell id="0" />
        <mxCell id="1" parent="0" />
        <mxCell id="7ZtT5mM6wgya5KHUodWK-1" style="edgeStyle=orthogonalEdgeStyle;rounded=0;orthogonalLoop=1;jettySize=auto;html=1;exitX=0.5;exitY=1;exitDx=0;exitDy=0;entryX=0;entryY=0.5;entryDx=0;entryDy=0;" edge="1" parent="1" source="7ZtT5mM6wgya5KHUodWK-2" target="7ZtT5mM6wgya5KHUodWK-232">
          <mxGeometry relative="1" as="geometry" />
        </mxCell>
        <mxCell id="7ZtT5mM6wgya5KHUodWK-2" value="r_input&amp;nbsp; [21]" style="text;html=1;align=center;verticalAlign=middle;whiteSpace=wrap;rounded=0;" vertex="1" parent="1">
          <mxGeometry x="10" y="-30" width="60" height="30" as="geometry" />
        </mxCell>
        <mxCell id="7ZtT5mM6wgya5KHUodWK-3" style="edgeStyle=orthogonalEdgeStyle;rounded=0;orthogonalLoop=1;jettySize=auto;html=1;exitX=0.5;exitY=1;exitDx=0;exitDy=0;entryX=0;entryY=0.5;entryDx=0;entryDy=0;" edge="1" parent="1" source="7ZtT5mM6wgya5KHUodWK-4" target="7ZtT5mM6wgya5KHUodWK-230">
          <mxGeometry relative="1" as="geometry" />
        </mxCell>
        <mxCell id="7ZtT5mM6wgya5KHUodWK-4" value="r_input&amp;nbsp; [20]" style="text;html=1;align=center;verticalAlign=middle;whiteSpace=wrap;rounded=0;" vertex="1" parent="1">
          <mxGeometry x="70" y="-30" width="60" height="30" as="geometry" />
        </mxCell>
        <mxCell id="7ZtT5mM6wgya5KHUodWK-5" style="edgeStyle=orthogonalEdgeStyle;rounded=0;orthogonalLoop=1;jettySize=auto;html=1;exitX=0.5;exitY=1;exitDx=0;exitDy=0;entryX=0;entryY=0.5;entryDx=0;entryDy=0;" edge="1" parent="1" source="7ZtT5mM6wgya5KHUodWK-6" target="7ZtT5mM6wgya5KHUodWK-226">
          <mxGeometry relative="1" as="geometry" />
        </mxCell>
        <mxCell id="7ZtT5mM6wgya5KHUodWK-6" value="r_input&amp;nbsp; [17]" style="text;html=1;align=center;verticalAlign=middle;whiteSpace=wrap;rounded=0;" vertex="1" parent="1">
          <mxGeometry x="250" y="-30" width="60" height="30" as="geometry" />
        </mxCell>
        <mxCell id="7ZtT5mM6wgya5KHUodWK-7" style="edgeStyle=orthogonalEdgeStyle;rounded=0;orthogonalLoop=1;jettySize=auto;html=1;exitX=0.5;exitY=1;exitDx=0;exitDy=0;entryX=0;entryY=0.5;entryDx=0;entryDy=0;" edge="1" parent="1" source="7ZtT5mM6wgya5KHUodWK-8" target="7ZtT5mM6wgya5KHUodWK-220">
          <mxGeometry relative="1" as="geometry" />
        </mxCell>
        <mxCell id="7ZtT5mM6wgya5KHUodWK-8" value="r_input&amp;nbsp; [18]" style="text;html=1;align=center;verticalAlign=middle;whiteSpace=wrap;rounded=0;" vertex="1" parent="1">
          <mxGeometry x="190" y="-30" width="60" height="30" as="geometry" />
        </mxCell>
        <mxCell id="7ZtT5mM6wgya5KHUodWK-9" style="edgeStyle=orthogonalEdgeStyle;rounded=0;orthogonalLoop=1;jettySize=auto;html=1;exitX=0.5;exitY=1;exitDx=0;exitDy=0;entryX=0;entryY=0.5;entryDx=0;entryDy=0;" edge="1" parent="1" source="7ZtT5mM6wgya5KHUodWK-10" target="7ZtT5mM6wgya5KHUodWK-228">
          <mxGeometry relative="1" as="geometry" />
        </mxCell>
        <mxCell id="7ZtT5mM6wgya5KHUodWK-10" value="r_input&amp;nbsp; [19]" style="text;html=1;align=center;verticalAlign=middle;whiteSpace=wrap;rounded=0;" vertex="1" parent="1">
          <mxGeometry x="130" y="-30" width="60" height="30" as="geometry" />
        </mxCell>
        <mxCell id="7ZtT5mM6wgya5KHUodWK-357" style="edgeStyle=orthogonalEdgeStyle;rounded=0;orthogonalLoop=1;jettySize=auto;html=1;exitX=0.5;exitY=0;exitDx=0;exitDy=0;entryX=0;entryY=0.5;entryDx=0;entryDy=0;" edge="1" parent="1" source="7ZtT5mM6wgya5KHUodWK-12" target="7ZtT5mM6wgya5KHUodWK-222">
          <mxGeometry relative="1" as="geometry" />
        </mxCell>
        <mxCell id="7ZtT5mM6wgya5KHUodWK-12" value="r_input&lt;div&gt;&amp;nbsp;[15]&lt;/div&gt;" style="text;html=1;align=center;verticalAlign=middle;whiteSpace=wrap;rounded=0;direction=east;" vertex="1" parent="1">
          <mxGeometry x="-590" y="640" width="60" height="30" as="geometry" />
        </mxCell>
        <mxCell id="7ZtT5mM6wgya5KHUodWK-13" style="edgeStyle=orthogonalEdgeStyle;rounded=0;orthogonalLoop=1;jettySize=auto;html=1;exitX=0.5;exitY=1;exitDx=0;exitDy=0;entryX=0;entryY=0.5;entryDx=0;entryDy=0;" edge="1" parent="1" source="7ZtT5mM6wgya5KHUodWK-14" target="7ZtT5mM6wgya5KHUodWK-224">
          <mxGeometry relative="1" as="geometry" />
        </mxCell>
        <mxCell id="7ZtT5mM6wgya5KHUodWK-14" value="&amp;nbsp;r_input&lt;div&gt;[16]&lt;/div&gt;" style="text;html=1;align=center;verticalAlign=middle;whiteSpace=wrap;rounded=0;" vertex="1" parent="1">
          <mxGeometry x="310" y="-30" width="60" height="30" as="geometry" />
        </mxCell>
        <mxCell id="7ZtT5mM6wgya5KHUodWK-358" style="edgeStyle=orthogonalEdgeStyle;rounded=0;orthogonalLoop=1;jettySize=auto;html=1;exitX=0.5;exitY=0;exitDx=0;exitDy=0;entryX=0;entryY=0.5;entryDx=0;entryDy=0;" edge="1" parent="1" source="7ZtT5mM6wgya5KHUodWK-16" target="7ZtT5mM6wgya5KHUodWK-218">
          <mxGeometry relative="1" as="geometry" />
        </mxCell>
        <mxCell id="7ZtT5mM6wgya5KHUodWK-16" value="r_input&lt;div&gt;&amp;nbsp;[14]&lt;/div&gt;" style="text;html=1;align=center;verticalAlign=middle;whiteSpace=wrap;rounded=0;" vertex="1" parent="1">
          <mxGeometry x="-530" y="640" width="60" height="30" as="geometry" />
        </mxCell>
        <mxCell id="7ZtT5mM6wgya5KHUodWK-360" style="edgeStyle=orthogonalEdgeStyle;rounded=0;orthogonalLoop=1;jettySize=auto;html=1;exitX=0.5;exitY=0;exitDx=0;exitDy=0;entryX=0;entryY=0.5;entryDx=0;entryDy=0;" edge="1" parent="1" source="7ZtT5mM6wgya5KHUodWK-18" target="7ZtT5mM6wgya5KHUodWK-214">
          <mxGeometry relative="1" as="geometry" />
        </mxCell>
        <mxCell id="7ZtT5mM6wgya5KHUodWK-18" value="r_input&lt;div&gt;&amp;nbsp;[12]&lt;/div&gt;" style="text;html=1;align=center;verticalAlign=middle;whiteSpace=wrap;rounded=0;" vertex="1" parent="1">
          <mxGeometry x="-410" y="640" width="60" height="30" as="geometry" />
        </mxCell>
        <mxCell id="7ZtT5mM6wgya5KHUodWK-359" style="edgeStyle=orthogonalEdgeStyle;rounded=0;orthogonalLoop=1;jettySize=auto;html=1;exitX=0.5;exitY=0;exitDx=0;exitDy=0;entryX=0;entryY=0.5;entryDx=0;entryDy=0;" edge="1" parent="1" source="7ZtT5mM6wgya5KHUodWK-20" target="7ZtT5mM6wgya5KHUodWK-216">
          <mxGeometry relative="1" as="geometry" />
        </mxCell>
        <mxCell id="7ZtT5mM6wgya5KHUodWK-20" value="r_input&lt;div&gt;&amp;nbsp;[13]&lt;/div&gt;" style="text;html=1;align=center;verticalAlign=middle;whiteSpace=wrap;rounded=0;" vertex="1" parent="1">
          <mxGeometry x="-470" y="640" width="60" height="30" as="geometry" />
        </mxCell>
        <mxCell id="7ZtT5mM6wgya5KHUodWK-361" style="edgeStyle=orthogonalEdgeStyle;rounded=0;orthogonalLoop=1;jettySize=auto;html=1;exitX=0.5;exitY=0;exitDx=0;exitDy=0;entryX=0;entryY=0.5;entryDx=0;entryDy=0;" edge="1" parent="1" source="7ZtT5mM6wgya5KHUodWK-22" target="7ZtT5mM6wgya5KHUodWK-190">
          <mxGeometry relative="1" as="geometry" />
        </mxCell>
        <mxCell id="7ZtT5mM6wgya5KHUodWK-22" value="r_input&lt;div&gt;&amp;nbsp;[11]&lt;/div&gt;" style="text;html=1;align=center;verticalAlign=middle;whiteSpace=wrap;rounded=0;" vertex="1" parent="1">
          <mxGeometry x="-350" y="640" width="60" height="30" as="geometry" />
        </mxCell>
        <mxCell id="7ZtT5mM6wgya5KHUodWK-362" style="edgeStyle=orthogonalEdgeStyle;rounded=0;orthogonalLoop=1;jettySize=auto;html=1;exitX=0.5;exitY=0;exitDx=0;exitDy=0;entryX=0;entryY=0.5;entryDx=0;entryDy=0;" edge="1" parent="1" source="7ZtT5mM6wgya5KHUodWK-24" target="7ZtT5mM6wgya5KHUodWK-192">
          <mxGeometry relative="1" as="geometry" />
        </mxCell>
        <mxCell id="7ZtT5mM6wgya5KHUodWK-24" value="r_input&lt;div&gt;&amp;nbsp;[10]&lt;/div&gt;" style="text;html=1;align=center;verticalAlign=middle;whiteSpace=wrap;rounded=0;" vertex="1" parent="1">
          <mxGeometry x="-290" y="640" width="60" height="30" as="geometry" />
        </mxCell>
        <mxCell id="7ZtT5mM6wgya5KHUodWK-363" style="edgeStyle=orthogonalEdgeStyle;rounded=0;orthogonalLoop=1;jettySize=auto;html=1;exitX=0.5;exitY=0;exitDx=0;exitDy=0;entryX=0;entryY=0.5;entryDx=0;entryDy=0;" edge="1" parent="1" source="7ZtT5mM6wgya5KHUodWK-26" target="7ZtT5mM6wgya5KHUodWK-194">
          <mxGeometry relative="1" as="geometry" />
        </mxCell>
        <mxCell id="7ZtT5mM6wgya5KHUodWK-26" value="r_input&lt;div&gt;&amp;nbsp;[9]&lt;/div&gt;" style="text;html=1;align=center;verticalAlign=middle;whiteSpace=wrap;rounded=0;" vertex="1" parent="1">
          <mxGeometry x="-230" y="640" width="60" height="30" as="geometry" />
        </mxCell>
        <mxCell id="7ZtT5mM6wgya5KHUodWK-364" style="edgeStyle=orthogonalEdgeStyle;rounded=0;orthogonalLoop=1;jettySize=auto;html=1;exitX=0.5;exitY=0;exitDx=0;exitDy=0;entryX=0;entryY=0.5;entryDx=0;entryDy=0;" edge="1" parent="1" source="7ZtT5mM6wgya5KHUodWK-28" target="7ZtT5mM6wgya5KHUodWK-196">
          <mxGeometry relative="1" as="geometry" />
        </mxCell>
        <mxCell id="7ZtT5mM6wgya5KHUodWK-28" value="r_input&lt;div&gt;&amp;nbsp;[8]&lt;/div&gt;" style="text;html=1;align=center;verticalAlign=middle;whiteSpace=wrap;rounded=0;" vertex="1" parent="1">
          <mxGeometry x="-170" y="640" width="60" height="30" as="geometry" />
        </mxCell>
        <mxCell id="7ZtT5mM6wgya5KHUodWK-365" style="edgeStyle=orthogonalEdgeStyle;rounded=0;orthogonalLoop=1;jettySize=auto;html=1;exitX=0.5;exitY=0;exitDx=0;exitDy=0;entryX=0;entryY=0.5;entryDx=0;entryDy=0;" edge="1" parent="1" source="7ZtT5mM6wgya5KHUodWK-30" target="7ZtT5mM6wgya5KHUodWK-212">
          <mxGeometry relative="1" as="geometry" />
        </mxCell>
        <mxCell id="7ZtT5mM6wgya5KHUodWK-30" value="r_input&lt;div&gt;&amp;nbsp;[7]&lt;/div&gt;" style="text;html=1;align=center;verticalAlign=middle;whiteSpace=wrap;rounded=0;" vertex="1" parent="1">
          <mxGeometry x="-110" y="640" width="60" height="30" as="geometry" />
        </mxCell>
        <mxCell id="7ZtT5mM6wgya5KHUodWK-366" style="edgeStyle=orthogonalEdgeStyle;rounded=0;orthogonalLoop=1;jettySize=auto;html=1;exitX=0.5;exitY=0;exitDx=0;exitDy=0;entryX=0;entryY=0.5;entryDx=0;entryDy=0;" edge="1" parent="1" source="7ZtT5mM6wgya5KHUodWK-32" target="7ZtT5mM6wgya5KHUodWK-210">
          <mxGeometry relative="1" as="geometry" />
        </mxCell>
        <mxCell id="7ZtT5mM6wgya5KHUodWK-32" value="r_input&lt;div&gt;&amp;nbsp;[6]&lt;/div&gt;" style="text;html=1;align=center;verticalAlign=middle;whiteSpace=wrap;rounded=0;" vertex="1" parent="1">
          <mxGeometry x="-50" y="640" width="60" height="30" as="geometry" />
        </mxCell>
        <mxCell id="7ZtT5mM6wgya5KHUodWK-367" style="edgeStyle=orthogonalEdgeStyle;rounded=0;orthogonalLoop=1;jettySize=auto;html=1;exitX=0.5;exitY=0;exitDx=0;exitDy=0;entryX=0;entryY=0.5;entryDx=0;entryDy=0;" edge="1" parent="1" source="7ZtT5mM6wgya5KHUodWK-34" target="7ZtT5mM6wgya5KHUodWK-208">
          <mxGeometry relative="1" as="geometry" />
        </mxCell>
        <mxCell id="7ZtT5mM6wgya5KHUodWK-34" value="r_input&lt;div&gt;&amp;nbsp;[5]&lt;/div&gt;" style="text;html=1;align=center;verticalAlign=middle;whiteSpace=wrap;rounded=0;" vertex="1" parent="1">
          <mxGeometry x="10" y="640" width="60" height="30" as="geometry" />
        </mxCell>
        <mxCell id="7ZtT5mM6wgya5KHUodWK-35" style="edgeStyle=orthogonalEdgeStyle;rounded=0;orthogonalLoop=1;jettySize=auto;html=1;exitX=0.5;exitY=1;exitDx=0;exitDy=0;entryX=0;entryY=0.5;entryDx=0;entryDy=0;" edge="1" parent="1" source="7ZtT5mM6wgya5KHUodWK-36" target="7ZtT5mM6wgya5KHUodWK-234">
          <mxGeometry relative="1" as="geometry" />
        </mxCell>
        <mxCell id="7ZtT5mM6wgya5KHUodWK-36" value="r_input&amp;nbsp; [22]" style="text;html=1;align=center;verticalAlign=middle;whiteSpace=wrap;rounded=0;" vertex="1" parent="1">
          <mxGeometry x="-50" y="-30" width="60" height="30" as="geometry" />
        </mxCell>
        <mxCell id="7ZtT5mM6wgya5KHUodWK-37" style="edgeStyle=orthogonalEdgeStyle;rounded=0;orthogonalLoop=1;jettySize=auto;html=1;exitX=0.5;exitY=1;exitDx=0;exitDy=0;entryX=0;entryY=0.5;entryDx=0;entryDy=0;" edge="1" parent="1" source="7ZtT5mM6wgya5KHUodWK-38" target="7ZtT5mM6wgya5KHUodWK-236">
          <mxGeometry relative="1" as="geometry" />
        </mxCell>
        <mxCell id="7ZtT5mM6wgya5KHUodWK-38" value="r_input&amp;nbsp; [23]" style="text;html=1;align=center;verticalAlign=middle;whiteSpace=wrap;rounded=0;" vertex="1" parent="1">
          <mxGeometry x="-110" y="-30" width="60" height="30" as="geometry" />
        </mxCell>
        <mxCell id="7ZtT5mM6wgya5KHUodWK-39" style="edgeStyle=orthogonalEdgeStyle;rounded=0;orthogonalLoop=1;jettySize=auto;html=1;exitX=0.5;exitY=1;exitDx=0;exitDy=0;entryX=0;entryY=0.5;entryDx=0;entryDy=0;" edge="1" parent="1" source="7ZtT5mM6wgya5KHUodWK-40" target="7ZtT5mM6wgya5KHUodWK-238">
          <mxGeometry relative="1" as="geometry" />
        </mxCell>
        <mxCell id="7ZtT5mM6wgya5KHUodWK-40" value="r_input&amp;nbsp; [24]" style="text;html=1;align=center;verticalAlign=middle;whiteSpace=wrap;rounded=0;" vertex="1" parent="1">
          <mxGeometry x="-170" y="-30" width="60" height="30" as="geometry" />
        </mxCell>
        <mxCell id="7ZtT5mM6wgya5KHUodWK-41" style="edgeStyle=orthogonalEdgeStyle;rounded=0;orthogonalLoop=1;jettySize=auto;html=1;exitX=0.5;exitY=1;exitDx=0;exitDy=0;entryX=0;entryY=0.5;entryDx=0;entryDy=0;" edge="1" parent="1" source="7ZtT5mM6wgya5KHUodWK-42" target="7ZtT5mM6wgya5KHUodWK-240">
          <mxGeometry relative="1" as="geometry" />
        </mxCell>
        <mxCell id="7ZtT5mM6wgya5KHUodWK-42" value="r_input&amp;nbsp; [25]" style="text;html=1;align=center;verticalAlign=middle;whiteSpace=wrap;rounded=0;" vertex="1" parent="1">
          <mxGeometry x="-230" y="-30" width="60" height="30" as="geometry" />
        </mxCell>
        <mxCell id="7ZtT5mM6wgya5KHUodWK-43" style="edgeStyle=orthogonalEdgeStyle;rounded=0;orthogonalLoop=1;jettySize=auto;html=1;exitX=0.5;exitY=1;exitDx=0;exitDy=0;entryX=0;entryY=0.5;entryDx=0;entryDy=0;" edge="1" parent="1" source="7ZtT5mM6wgya5KHUodWK-44" target="7ZtT5mM6wgya5KHUodWK-242">
          <mxGeometry relative="1" as="geometry" />
        </mxCell>
        <mxCell id="7ZtT5mM6wgya5KHUodWK-44" value="r_input&amp;nbsp; [26]" style="text;html=1;align=center;verticalAlign=middle;whiteSpace=wrap;rounded=0;" vertex="1" parent="1">
          <mxGeometry x="-290" y="-30" width="60" height="30" as="geometry" />
        </mxCell>
        <mxCell id="7ZtT5mM6wgya5KHUodWK-369" style="edgeStyle=orthogonalEdgeStyle;rounded=0;orthogonalLoop=1;jettySize=auto;html=1;exitX=0.5;exitY=0;exitDx=0;exitDy=0;entryX=0;entryY=0.5;entryDx=0;entryDy=0;" edge="1" parent="1" source="7ZtT5mM6wgya5KHUodWK-46" target="7ZtT5mM6wgya5KHUodWK-206">
          <mxGeometry relative="1" as="geometry" />
        </mxCell>
        <mxCell id="7ZtT5mM6wgya5KHUodWK-46" value="r_input&lt;div&gt;&amp;nbsp;[4]&lt;/div&gt;" style="text;html=1;align=center;verticalAlign=middle;whiteSpace=wrap;rounded=0;" vertex="1" parent="1">
          <mxGeometry x="70" y="640" width="60" height="30" as="geometry" />
        </mxCell>
        <mxCell id="7ZtT5mM6wgya5KHUodWK-47" style="edgeStyle=orthogonalEdgeStyle;rounded=0;orthogonalLoop=1;jettySize=auto;html=1;exitX=0.5;exitY=1;exitDx=0;exitDy=0;entryX=0;entryY=0.5;entryDx=0;entryDy=0;" edge="1" parent="1" source="7ZtT5mM6wgya5KHUodWK-48" target="7ZtT5mM6wgya5KHUodWK-246">
          <mxGeometry relative="1" as="geometry" />
        </mxCell>
        <mxCell id="7ZtT5mM6wgya5KHUodWK-48" value="r_input&amp;nbsp; [28]" style="text;html=1;align=center;verticalAlign=middle;whiteSpace=wrap;rounded=0;" vertex="1" parent="1">
          <mxGeometry x="-410" y="-30" width="60" height="30" as="geometry" />
        </mxCell>
        <mxCell id="7ZtT5mM6wgya5KHUodWK-49" style="edgeStyle=orthogonalEdgeStyle;rounded=0;orthogonalLoop=1;jettySize=auto;html=1;exitX=0.5;exitY=1;exitDx=0;exitDy=0;entryX=0;entryY=0.5;entryDx=0;entryDy=0;" edge="1" parent="1" source="7ZtT5mM6wgya5KHUodWK-50" target="7ZtT5mM6wgya5KHUodWK-248">
          <mxGeometry relative="1" as="geometry" />
        </mxCell>
        <mxCell id="7ZtT5mM6wgya5KHUodWK-50" value="r_input&amp;nbsp; [29]" style="text;html=1;align=center;verticalAlign=middle;whiteSpace=wrap;rounded=0;" vertex="1" parent="1">
          <mxGeometry x="-470" y="-30" width="60" height="30" as="geometry" />
        </mxCell>
        <mxCell id="7ZtT5mM6wgya5KHUodWK-51" style="edgeStyle=orthogonalEdgeStyle;rounded=0;orthogonalLoop=1;jettySize=auto;html=1;exitX=0.5;exitY=1;exitDx=0;exitDy=0;entryX=0;entryY=0.5;entryDx=0;entryDy=0;" edge="1" parent="1" source="7ZtT5mM6wgya5KHUodWK-52" target="7ZtT5mM6wgya5KHUodWK-244">
          <mxGeometry relative="1" as="geometry" />
        </mxCell>
        <mxCell id="7ZtT5mM6wgya5KHUodWK-52" value="r_input&amp;nbsp; [27]" style="text;html=1;align=center;verticalAlign=middle;whiteSpace=wrap;rounded=0;" vertex="1" parent="1">
          <mxGeometry x="-350" y="-30" width="60" height="30" as="geometry" />
        </mxCell>
        <mxCell id="7ZtT5mM6wgya5KHUodWK-53" style="edgeStyle=orthogonalEdgeStyle;rounded=0;orthogonalLoop=1;jettySize=auto;html=1;exitX=0.5;exitY=1;exitDx=0;exitDy=0;entryX=0;entryY=0.5;entryDx=0;entryDy=0;" edge="1" parent="1" source="7ZtT5mM6wgya5KHUodWK-54" target="7ZtT5mM6wgya5KHUodWK-186">
          <mxGeometry relative="1" as="geometry" />
        </mxCell>
        <mxCell id="7ZtT5mM6wgya5KHUodWK-54" value="r_input [31]" style="text;html=1;align=center;verticalAlign=middle;whiteSpace=wrap;rounded=0;" vertex="1" parent="1">
          <mxGeometry x="-590" y="-30" width="60" height="30" as="geometry" />
        </mxCell>
        <mxCell id="7ZtT5mM6wgya5KHUodWK-370" style="edgeStyle=orthogonalEdgeStyle;rounded=0;orthogonalLoop=1;jettySize=auto;html=1;exitX=0.5;exitY=0;exitDx=0;exitDy=0;entryX=0;entryY=0.5;entryDx=0;entryDy=0;" edge="1" parent="1" source="7ZtT5mM6wgya5KHUodWK-56" target="7ZtT5mM6wgya5KHUodWK-204">
          <mxGeometry relative="1" as="geometry" />
        </mxCell>
        <mxCell id="7ZtT5mM6wgya5KHUodWK-56" value="r_input&lt;div&gt;&amp;nbsp;[3]&lt;/div&gt;" style="text;html=1;align=center;verticalAlign=middle;whiteSpace=wrap;rounded=0;" vertex="1" parent="1">
          <mxGeometry x="130" y="640" width="60" height="30" as="geometry" />
        </mxCell>
        <mxCell id="7ZtT5mM6wgya5KHUodWK-57" style="edgeStyle=orthogonalEdgeStyle;rounded=0;orthogonalLoop=1;jettySize=auto;html=1;exitX=0.5;exitY=1;exitDx=0;exitDy=0;entryX=0;entryY=0.5;entryDx=0;entryDy=0;" edge="1" parent="1" source="7ZtT5mM6wgya5KHUodWK-58" target="7ZtT5mM6wgya5KHUodWK-188">
          <mxGeometry relative="1" as="geometry" />
        </mxCell>
        <mxCell id="7ZtT5mM6wgya5KHUodWK-58" value="r_input&amp;nbsp; [30]" style="text;html=1;align=center;verticalAlign=middle;whiteSpace=wrap;rounded=0;" vertex="1" parent="1">
          <mxGeometry x="-530" y="-30" width="60" height="30" as="geometry" />
        </mxCell>
        <mxCell id="7ZtT5mM6wgya5KHUodWK-372" style="edgeStyle=orthogonalEdgeStyle;rounded=0;orthogonalLoop=1;jettySize=auto;html=1;exitX=0.5;exitY=0;exitDx=0;exitDy=0;entryX=0;entryY=0.5;entryDx=0;entryDy=0;" edge="1" parent="1" source="7ZtT5mM6wgya5KHUodWK-60" target="7ZtT5mM6wgya5KHUodWK-200">
          <mxGeometry relative="1" as="geometry" />
        </mxCell>
        <mxCell id="7ZtT5mM6wgya5KHUodWK-60" value="r_input&lt;div&gt;&amp;nbsp;[1]&lt;/div&gt;" style="text;html=1;align=center;verticalAlign=middle;whiteSpace=wrap;rounded=0;" vertex="1" parent="1">
          <mxGeometry x="250" y="640" width="60" height="30" as="geometry" />
        </mxCell>
        <mxCell id="7ZtT5mM6wgya5KHUodWK-371" style="edgeStyle=orthogonalEdgeStyle;rounded=0;orthogonalLoop=1;jettySize=auto;html=1;exitX=0.5;exitY=0;exitDx=0;exitDy=0;entryX=0;entryY=0.5;entryDx=0;entryDy=0;" edge="1" parent="1" source="7ZtT5mM6wgya5KHUodWK-62" target="7ZtT5mM6wgya5KHUodWK-202">
          <mxGeometry relative="1" as="geometry" />
        </mxCell>
        <mxCell id="7ZtT5mM6wgya5KHUodWK-62" value="r_input&lt;div&gt;&amp;nbsp;[2]&lt;/div&gt;" style="text;html=1;align=center;verticalAlign=middle;whiteSpace=wrap;rounded=0;" vertex="1" parent="1">
          <mxGeometry x="190" y="640" width="60" height="30" as="geometry" />
        </mxCell>
        <mxCell id="7ZtT5mM6wgya5KHUodWK-373" style="edgeStyle=orthogonalEdgeStyle;rounded=0;orthogonalLoop=1;jettySize=auto;html=1;exitX=0.5;exitY=0;exitDx=0;exitDy=0;entryX=0;entryY=0.5;entryDx=0;entryDy=0;" edge="1" parent="1" source="7ZtT5mM6wgya5KHUodWK-64" target="7ZtT5mM6wgya5KHUodWK-198">
          <mxGeometry relative="1" as="geometry" />
        </mxCell>
        <mxCell id="7ZtT5mM6wgya5KHUodWK-64" value="r_input&lt;div&gt;[0]&lt;/div&gt;" style="text;html=1;align=center;verticalAlign=middle;whiteSpace=wrap;rounded=0;" vertex="1" parent="1">
          <mxGeometry x="310" y="640" width="60" height="30" as="geometry" />
        </mxCell>
        <mxCell id="7ZtT5mM6wgya5KHUodWK-130" value="re [38]" style="text;html=1;align=center;verticalAlign=middle;whiteSpace=wrap;rounded=0;" vertex="1" parent="1">
          <mxGeometry x="-690" y="260" width="60" height="20" as="geometry" />
        </mxCell>
        <mxCell id="7ZtT5mM6wgya5KHUodWK-131" value="re [36]" style="text;html=1;align=center;verticalAlign=middle;whiteSpace=wrap;rounded=0;" vertex="1" parent="1">
          <mxGeometry x="-690" y="300" width="60" height="20" as="geometry" />
        </mxCell>
        <mxCell id="7ZtT5mM6wgya5KHUodWK-132" value="re [39]" style="text;html=1;align=center;verticalAlign=middle;whiteSpace=wrap;rounded=0;" vertex="1" parent="1">
          <mxGeometry x="-690" y="240" width="60" height="20" as="geometry" />
        </mxCell>
        <mxCell id="7ZtT5mM6wgya5KHUodWK-133" value="re [37]" style="text;html=1;align=center;verticalAlign=middle;whiteSpace=wrap;rounded=0;" vertex="1" parent="1">
          <mxGeometry x="-690" y="280" width="60" height="20" as="geometry" />
        </mxCell>
        <mxCell id="7ZtT5mM6wgya5KHUodWK-134" value="re [40]" style="text;html=1;align=center;verticalAlign=middle;whiteSpace=wrap;rounded=0;" vertex="1" parent="1">
          <mxGeometry x="-690" y="220" width="60" height="20" as="geometry" />
        </mxCell>
        <mxCell id="7ZtT5mM6wgya5KHUodWK-135" value="re [41]" style="text;html=1;align=center;verticalAlign=middle;whiteSpace=wrap;rounded=0;" vertex="1" parent="1">
          <mxGeometry x="-690" y="200" width="60" height="20" as="geometry" />
        </mxCell>
        <mxCell id="7ZtT5mM6wgya5KHUodWK-136" value="re [42]" style="text;html=1;align=center;verticalAlign=middle;whiteSpace=wrap;rounded=0;" vertex="1" parent="1">
          <mxGeometry x="-690" y="180" width="60" height="20" as="geometry" />
        </mxCell>
        <mxCell id="7ZtT5mM6wgya5KHUodWK-137" value="re [43]" style="text;html=1;align=center;verticalAlign=middle;whiteSpace=wrap;rounded=0;" vertex="1" parent="1">
          <mxGeometry x="-690" y="160" width="60" height="20" as="geometry" />
        </mxCell>
        <mxCell id="7ZtT5mM6wgya5KHUodWK-138" value="re [44]" style="text;html=1;align=center;verticalAlign=middle;whiteSpace=wrap;rounded=0;" vertex="1" parent="1">
          <mxGeometry x="-690" y="140" width="60" height="20" as="geometry" />
        </mxCell>
        <mxCell id="7ZtT5mM6wgya5KHUodWK-139" value="re [45]" style="text;html=1;align=center;verticalAlign=middle;whiteSpace=wrap;rounded=0;" vertex="1" parent="1">
          <mxGeometry x="-690" y="120" width="60" height="20" as="geometry" />
        </mxCell>
        <mxCell id="7ZtT5mM6wgya5KHUodWK-140" value="re [46]" style="text;html=1;align=center;verticalAlign=middle;whiteSpace=wrap;rounded=0;" vertex="1" parent="1">
          <mxGeometry x="-690" y="100" width="60" height="20" as="geometry" />
        </mxCell>
        <mxCell id="7ZtT5mM6wgya5KHUodWK-141" value="re [47]" style="text;html=1;align=center;verticalAlign=middle;whiteSpace=wrap;rounded=0;" vertex="1" parent="1">
          <mxGeometry x="-690" y="80" width="60" height="20" as="geometry" />
        </mxCell>
        <mxCell id="7ZtT5mM6wgya5KHUodWK-375" style="edgeStyle=orthogonalEdgeStyle;rounded=0;orthogonalLoop=1;jettySize=auto;html=1;exitX=1;exitY=0.5;exitDx=0;exitDy=0;entryX=1;entryY=0.5;entryDx=0;entryDy=0;" edge="1" parent="1" source="7ZtT5mM6wgya5KHUodWK-186" target="7ZtT5mM6wgya5KHUodWK-140">
          <mxGeometry relative="1" as="geometry" />
        </mxCell>
        <mxCell id="7ZtT5mM6wgya5KHUodWK-438" style="edgeStyle=orthogonalEdgeStyle;rounded=0;orthogonalLoop=1;jettySize=auto;html=1;exitX=1;exitY=0.5;exitDx=0;exitDy=0;entryX=0;entryY=0.5;entryDx=0;entryDy=0;" edge="1" parent="1" source="7ZtT5mM6wgya5KHUodWK-186" target="7ZtT5mM6wgya5KHUodWK-349">
          <mxGeometry relative="1" as="geometry">
            <Array as="points">
              <mxPoint x="-560" y="110" />
              <mxPoint x="-550" y="110" />
              <mxPoint x="-550" y="560" />
              <mxPoint x="390" y="560" />
              <mxPoint x="390" y="550" />
            </Array>
          </mxGeometry>
        </mxCell>
        <mxCell id="7ZtT5mM6wgya5KHUodWK-186" value="" style="triangle;whiteSpace=wrap;html=1;rotation=90;" vertex="1" parent="1">
          <mxGeometry x="-570" y="10" width="20" height="30" as="geometry" />
        </mxCell>
        <mxCell id="7ZtT5mM6wgya5KHUodWK-376" style="edgeStyle=orthogonalEdgeStyle;rounded=0;orthogonalLoop=1;jettySize=auto;html=1;exitX=1;exitY=0.5;exitDx=0;exitDy=0;entryX=1;entryY=0.5;entryDx=0;entryDy=0;" edge="1" parent="1" source="7ZtT5mM6wgya5KHUodWK-188" target="7ZtT5mM6wgya5KHUodWK-139">
          <mxGeometry relative="1" as="geometry" />
        </mxCell>
        <mxCell id="7ZtT5mM6wgya5KHUodWK-188" value="" style="triangle;whiteSpace=wrap;html=1;rotation=90;" vertex="1" parent="1">
          <mxGeometry x="-510" y="10" width="20" height="30" as="geometry" />
        </mxCell>
        <mxCell id="7ZtT5mM6wgya5KHUodWK-412" style="edgeStyle=orthogonalEdgeStyle;rounded=0;orthogonalLoop=1;jettySize=auto;html=1;exitX=1;exitY=0.5;exitDx=0;exitDy=0;entryX=0;entryY=0.5;entryDx=0;entryDy=0;" edge="1" parent="1" source="7ZtT5mM6wgya5KHUodWK-190" target="7ZtT5mM6wgya5KHUodWK-338">
          <mxGeometry relative="1" as="geometry">
            <Array as="points">
              <mxPoint x="-320" y="590" />
              <mxPoint x="-310" y="590" />
              <mxPoint x="-310" y="200" />
              <mxPoint x="390" y="200" />
              <mxPoint x="390" y="190" />
            </Array>
          </mxGeometry>
        </mxCell>
        <mxCell id="7ZtT5mM6wgya5KHUodWK-416" style="edgeStyle=orthogonalEdgeStyle;rounded=0;orthogonalLoop=1;jettySize=auto;html=1;exitX=1;exitY=0.5;exitDx=0;exitDy=0;entryX=0;entryY=0.5;entryDx=0;entryDy=0;" edge="1" parent="1" source="7ZtT5mM6wgya5KHUodWK-190" target="7ZtT5mM6wgya5KHUodWK-336">
          <mxGeometry relative="1" as="geometry">
            <Array as="points">
              <mxPoint x="-320" y="590" />
              <mxPoint x="-310" y="590" />
              <mxPoint x="-310" y="240" />
              <mxPoint x="390" y="240" />
              <mxPoint x="390" y="230" />
            </Array>
          </mxGeometry>
        </mxCell>
        <mxCell id="7ZtT5mM6wgya5KHUodWK-190" value="" style="triangle;whiteSpace=wrap;html=1;rotation=90;direction=west;" vertex="1" parent="1">
          <mxGeometry x="-330" y="600" width="20" height="30" as="geometry" />
        </mxCell>
        <mxCell id="7ZtT5mM6wgya5KHUodWK-418" style="edgeStyle=orthogonalEdgeStyle;rounded=0;orthogonalLoop=1;jettySize=auto;html=1;exitX=1;exitY=0.5;exitDx=0;exitDy=0;entryX=0;entryY=0.5;entryDx=0;entryDy=0;" edge="1" parent="1" source="7ZtT5mM6wgya5KHUodWK-192" target="7ZtT5mM6wgya5KHUodWK-334">
          <mxGeometry relative="1" as="geometry">
            <Array as="points">
              <mxPoint x="-260" y="260" />
              <mxPoint x="390" y="260" />
              <mxPoint x="390" y="250" />
            </Array>
          </mxGeometry>
        </mxCell>
        <mxCell id="7ZtT5mM6wgya5KHUodWK-192" value="" style="triangle;whiteSpace=wrap;html=1;rotation=90;direction=west;" vertex="1" parent="1">
          <mxGeometry x="-270" y="600" width="20" height="30" as="geometry" />
        </mxCell>
        <mxCell id="7ZtT5mM6wgya5KHUodWK-419" style="edgeStyle=orthogonalEdgeStyle;rounded=0;orthogonalLoop=1;jettySize=auto;html=1;exitX=1;exitY=0.5;exitDx=0;exitDy=0;entryX=0;entryY=0.5;entryDx=0;entryDy=0;" edge="1" parent="1" source="7ZtT5mM6wgya5KHUodWK-194" target="7ZtT5mM6wgya5KHUodWK-332">
          <mxGeometry relative="1" as="geometry">
            <Array as="points">
              <mxPoint x="-200" y="280" />
              <mxPoint x="390" y="280" />
              <mxPoint x="390" y="270" />
            </Array>
          </mxGeometry>
        </mxCell>
        <mxCell id="7ZtT5mM6wgya5KHUodWK-194" value="" style="triangle;whiteSpace=wrap;html=1;rotation=90;direction=west;" vertex="1" parent="1">
          <mxGeometry x="-210" y="600" width="20" height="30" as="geometry" />
        </mxCell>
        <mxCell id="7ZtT5mM6wgya5KHUodWK-420" style="edgeStyle=orthogonalEdgeStyle;rounded=0;orthogonalLoop=1;jettySize=auto;html=1;exitX=1;exitY=0.5;exitDx=0;exitDy=0;entryX=0;entryY=0.5;entryDx=0;entryDy=0;" edge="1" parent="1" source="7ZtT5mM6wgya5KHUodWK-196" target="7ZtT5mM6wgya5KHUodWK-335">
          <mxGeometry relative="1" as="geometry">
            <Array as="points">
              <mxPoint x="-140" y="590" />
              <mxPoint x="-130" y="590" />
              <mxPoint x="-130" y="300" />
              <mxPoint x="390" y="300" />
              <mxPoint x="390" y="290" />
            </Array>
          </mxGeometry>
        </mxCell>
        <mxCell id="7ZtT5mM6wgya5KHUodWK-422" style="edgeStyle=orthogonalEdgeStyle;rounded=0;orthogonalLoop=1;jettySize=auto;html=1;exitX=1;exitY=0.5;exitDx=0;exitDy=0;entryX=0;entryY=0.5;entryDx=0;entryDy=0;" edge="1" parent="1" source="7ZtT5mM6wgya5KHUodWK-196" target="7ZtT5mM6wgya5KHUodWK-347">
          <mxGeometry relative="1" as="geometry">
            <Array as="points">
              <mxPoint x="-140" y="590" />
              <mxPoint x="-130" y="590" />
              <mxPoint x="-130" y="340" />
              <mxPoint x="390" y="340" />
              <mxPoint x="390" y="330" />
            </Array>
          </mxGeometry>
        </mxCell>
        <mxCell id="7ZtT5mM6wgya5KHUodWK-196" value="" style="triangle;whiteSpace=wrap;html=1;rotation=90;direction=west;" vertex="1" parent="1">
          <mxGeometry x="-150" y="600" width="20" height="30" as="geometry" />
        </mxCell>
        <mxCell id="7ZtT5mM6wgya5KHUodWK-374" style="edgeStyle=orthogonalEdgeStyle;rounded=0;orthogonalLoop=1;jettySize=auto;html=1;exitX=1;exitY=0.5;exitDx=0;exitDy=0;entryX=1;entryY=0.5;entryDx=0;entryDy=0;" edge="1" parent="1" source="7ZtT5mM6wgya5KHUodWK-198" target="7ZtT5mM6wgya5KHUodWK-141">
          <mxGeometry relative="1" as="geometry" />
        </mxCell>
        <mxCell id="7ZtT5mM6wgya5KHUodWK-436" style="edgeStyle=orthogonalEdgeStyle;rounded=0;orthogonalLoop=1;jettySize=auto;html=1;exitX=1;exitY=0.5;exitDx=0;exitDy=0;entryX=0;entryY=0.5;entryDx=0;entryDy=0;" edge="1" parent="1" source="7ZtT5mM6wgya5KHUodWK-198" target="7ZtT5mM6wgya5KHUodWK-350">
          <mxGeometry relative="1" as="geometry">
            <Array as="points">
              <mxPoint x="340" y="540" />
              <mxPoint x="390" y="540" />
              <mxPoint x="390" y="530" />
            </Array>
          </mxGeometry>
        </mxCell>
        <mxCell id="7ZtT5mM6wgya5KHUodWK-198" value="" style="triangle;whiteSpace=wrap;html=1;rotation=90;direction=west;" vertex="1" parent="1">
          <mxGeometry x="330" y="600" width="20" height="30" as="geometry" />
        </mxCell>
        <mxCell id="7ZtT5mM6wgya5KHUodWK-435" style="edgeStyle=orthogonalEdgeStyle;rounded=0;orthogonalLoop=1;jettySize=auto;html=1;exitX=1;exitY=0.5;exitDx=0;exitDy=0;entryX=0;entryY=0.5;entryDx=0;entryDy=0;" edge="1" parent="1" source="7ZtT5mM6wgya5KHUodWK-200" target="7ZtT5mM6wgya5KHUodWK-351">
          <mxGeometry relative="1" as="geometry">
            <Array as="points">
              <mxPoint x="280" y="520" />
              <mxPoint x="390" y="520" />
              <mxPoint x="390" y="510" />
            </Array>
          </mxGeometry>
        </mxCell>
        <mxCell id="7ZtT5mM6wgya5KHUodWK-200" value="" style="triangle;whiteSpace=wrap;html=1;rotation=90;direction=west;" vertex="1" parent="1">
          <mxGeometry x="270" y="600" width="20" height="30" as="geometry" />
        </mxCell>
        <mxCell id="7ZtT5mM6wgya5KHUodWK-434" style="edgeStyle=orthogonalEdgeStyle;rounded=0;orthogonalLoop=1;jettySize=auto;html=1;exitX=1;exitY=0.5;exitDx=0;exitDy=0;entryX=0;entryY=0.5;entryDx=0;entryDy=0;" edge="1" parent="1" source="7ZtT5mM6wgya5KHUodWK-202" target="7ZtT5mM6wgya5KHUodWK-353">
          <mxGeometry relative="1" as="geometry">
            <Array as="points">
              <mxPoint x="220" y="500" />
              <mxPoint x="390" y="500" />
              <mxPoint x="390" y="490" />
            </Array>
          </mxGeometry>
        </mxCell>
        <mxCell id="7ZtT5mM6wgya5KHUodWK-202" value="" style="triangle;whiteSpace=wrap;html=1;rotation=90;direction=west;" vertex="1" parent="1">
          <mxGeometry x="210" y="600" width="20" height="30" as="geometry" />
        </mxCell>
        <mxCell id="7ZtT5mM6wgya5KHUodWK-429" style="edgeStyle=orthogonalEdgeStyle;rounded=0;orthogonalLoop=1;jettySize=auto;html=1;exitX=1;exitY=0.5;exitDx=0;exitDy=0;entryX=0;entryY=0.5;entryDx=0;entryDy=0;" edge="1" parent="1" source="7ZtT5mM6wgya5KHUodWK-204" target="7ZtT5mM6wgya5KHUodWK-355">
          <mxGeometry relative="1" as="geometry">
            <Array as="points">
              <mxPoint x="160" y="590" />
              <mxPoint x="170" y="590" />
              <mxPoint x="170" y="440" />
              <mxPoint x="390" y="440" />
              <mxPoint x="390" y="430" />
            </Array>
          </mxGeometry>
        </mxCell>
        <mxCell id="7ZtT5mM6wgya5KHUodWK-432" style="edgeStyle=orthogonalEdgeStyle;rounded=0;orthogonalLoop=1;jettySize=auto;html=1;exitX=1;exitY=0.5;exitDx=0;exitDy=0;entryX=0;entryY=0.5;entryDx=0;entryDy=0;" edge="1" parent="1" source="7ZtT5mM6wgya5KHUodWK-204" target="7ZtT5mM6wgya5KHUodWK-352">
          <mxGeometry relative="1" as="geometry">
            <Array as="points">
              <mxPoint x="160" y="590" />
              <mxPoint x="170" y="590" />
              <mxPoint x="170" y="480" />
              <mxPoint x="390" y="480" />
              <mxPoint x="390" y="470" />
            </Array>
          </mxGeometry>
        </mxCell>
        <mxCell id="7ZtT5mM6wgya5KHUodWK-204" value="" style="triangle;whiteSpace=wrap;html=1;rotation=90;direction=west;" vertex="1" parent="1">
          <mxGeometry x="150" y="600" width="20" height="30" as="geometry" />
        </mxCell>
        <mxCell id="7ZtT5mM6wgya5KHUodWK-428" style="edgeStyle=orthogonalEdgeStyle;rounded=0;orthogonalLoop=1;jettySize=auto;html=1;exitX=1;exitY=0.5;exitDx=0;exitDy=0;entryX=0;entryY=0.5;entryDx=0;entryDy=0;" edge="1" parent="1" source="7ZtT5mM6wgya5KHUodWK-206" target="7ZtT5mM6wgya5KHUodWK-348">
          <mxGeometry relative="1" as="geometry">
            <Array as="points">
              <mxPoint x="100" y="590" />
              <mxPoint x="110" y="590" />
              <mxPoint x="110" y="420" />
              <mxPoint x="390" y="420" />
              <mxPoint x="390" y="410" />
            </Array>
          </mxGeometry>
        </mxCell>
        <mxCell id="7ZtT5mM6wgya5KHUodWK-430" style="edgeStyle=orthogonalEdgeStyle;rounded=0;orthogonalLoop=1;jettySize=auto;html=1;exitX=1;exitY=0.5;exitDx=0;exitDy=0;entryX=0;entryY=0.5;entryDx=0;entryDy=0;" edge="1" parent="1" source="7ZtT5mM6wgya5KHUodWK-206" target="7ZtT5mM6wgya5KHUodWK-354">
          <mxGeometry relative="1" as="geometry">
            <Array as="points">
              <mxPoint x="100" y="590" />
              <mxPoint x="110" y="590" />
              <mxPoint x="110" y="460" />
              <mxPoint x="390" y="460" />
              <mxPoint x="390" y="450" />
            </Array>
          </mxGeometry>
        </mxCell>
        <mxCell id="7ZtT5mM6wgya5KHUodWK-206" value="" style="triangle;whiteSpace=wrap;html=1;rotation=90;direction=west;" vertex="1" parent="1">
          <mxGeometry x="90" y="600" width="20" height="30" as="geometry" />
        </mxCell>
        <mxCell id="7ZtT5mM6wgya5KHUodWK-427" style="edgeStyle=orthogonalEdgeStyle;rounded=0;orthogonalLoop=1;jettySize=auto;html=1;exitX=1;exitY=0.5;exitDx=0;exitDy=0;entryX=0;entryY=0.5;entryDx=0;entryDy=0;" edge="1" parent="1" source="7ZtT5mM6wgya5KHUodWK-208" target="7ZtT5mM6wgya5KHUodWK-344">
          <mxGeometry relative="1" as="geometry">
            <Array as="points">
              <mxPoint x="40" y="400" />
              <mxPoint x="390" y="400" />
              <mxPoint x="390" y="390" />
            </Array>
          </mxGeometry>
        </mxCell>
        <mxCell id="7ZtT5mM6wgya5KHUodWK-208" value="" style="triangle;whiteSpace=wrap;html=1;rotation=90;direction=west;" vertex="1" parent="1">
          <mxGeometry x="30" y="600" width="20" height="30" as="geometry" />
        </mxCell>
        <mxCell id="7ZtT5mM6wgya5KHUodWK-426" style="edgeStyle=orthogonalEdgeStyle;rounded=0;orthogonalLoop=1;jettySize=auto;html=1;exitX=1;exitY=0.5;exitDx=0;exitDy=0;entryX=0;entryY=0.5;entryDx=0;entryDy=0;" edge="1" parent="1" source="7ZtT5mM6wgya5KHUodWK-210" target="7ZtT5mM6wgya5KHUodWK-345">
          <mxGeometry relative="1" as="geometry">
            <Array as="points">
              <mxPoint x="-20" y="380" />
              <mxPoint x="390" y="380" />
              <mxPoint x="390" y="370" />
            </Array>
          </mxGeometry>
        </mxCell>
        <mxCell id="7ZtT5mM6wgya5KHUodWK-210" value="" style="triangle;whiteSpace=wrap;html=1;rotation=90;direction=west;" vertex="1" parent="1">
          <mxGeometry x="-30" y="600" width="20" height="30" as="geometry" />
        </mxCell>
        <mxCell id="7ZtT5mM6wgya5KHUodWK-421" style="edgeStyle=orthogonalEdgeStyle;rounded=0;orthogonalLoop=1;jettySize=auto;html=1;exitX=1;exitY=0.5;exitDx=0;exitDy=0;entryX=0;entryY=0.5;entryDx=0;entryDy=0;" edge="1" parent="1" source="7ZtT5mM6wgya5KHUodWK-212" target="7ZtT5mM6wgya5KHUodWK-333">
          <mxGeometry relative="1" as="geometry">
            <Array as="points">
              <mxPoint x="-80" y="590" />
              <mxPoint x="-70" y="590" />
              <mxPoint x="-70" y="320" />
              <mxPoint x="390" y="320" />
              <mxPoint x="390" y="310" />
            </Array>
          </mxGeometry>
        </mxCell>
        <mxCell id="7ZtT5mM6wgya5KHUodWK-424" style="edgeStyle=orthogonalEdgeStyle;rounded=0;orthogonalLoop=1;jettySize=auto;html=1;exitX=1;exitY=0.5;exitDx=0;exitDy=0;entryX=0;entryY=0.5;entryDx=0;entryDy=0;" edge="1" parent="1" source="7ZtT5mM6wgya5KHUodWK-212" target="7ZtT5mM6wgya5KHUodWK-346">
          <mxGeometry relative="1" as="geometry">
            <Array as="points">
              <mxPoint x="-80" y="590" />
              <mxPoint x="-70" y="590" />
              <mxPoint x="-70" y="360" />
              <mxPoint x="390" y="360" />
              <mxPoint x="390" y="350" />
            </Array>
          </mxGeometry>
        </mxCell>
        <mxCell id="7ZtT5mM6wgya5KHUodWK-212" value="" style="triangle;whiteSpace=wrap;html=1;rotation=90;direction=west;" vertex="1" parent="1">
          <mxGeometry x="-90" y="600" width="20" height="30" as="geometry" />
        </mxCell>
        <mxCell id="7ZtT5mM6wgya5KHUodWK-411" style="edgeStyle=orthogonalEdgeStyle;rounded=0;orthogonalLoop=1;jettySize=auto;html=1;exitX=1;exitY=0.5;exitDx=0;exitDy=0;entryX=0;entryY=0.5;entryDx=0;entryDy=0;" edge="1" parent="1" source="7ZtT5mM6wgya5KHUodWK-214" target="7ZtT5mM6wgya5KHUodWK-339">
          <mxGeometry relative="1" as="geometry">
            <Array as="points">
              <mxPoint x="-380" y="590" />
              <mxPoint x="-370" y="590" />
              <mxPoint x="-370" y="180" />
              <mxPoint x="390" y="180" />
              <mxPoint x="390" y="170" />
            </Array>
          </mxGeometry>
        </mxCell>
        <mxCell id="7ZtT5mM6wgya5KHUodWK-413" style="edgeStyle=orthogonalEdgeStyle;rounded=0;orthogonalLoop=1;jettySize=auto;html=1;exitX=1;exitY=0.5;exitDx=0;exitDy=0;entryX=0;entryY=0.5;entryDx=0;entryDy=0;" edge="1" parent="1" source="7ZtT5mM6wgya5KHUodWK-214" target="7ZtT5mM6wgya5KHUodWK-337">
          <mxGeometry relative="1" as="geometry">
            <Array as="points">
              <mxPoint x="-380" y="590" />
              <mxPoint x="-370" y="590" />
              <mxPoint x="-370" y="220" />
              <mxPoint x="390" y="220" />
              <mxPoint x="390" y="210" />
            </Array>
          </mxGeometry>
        </mxCell>
        <mxCell id="7ZtT5mM6wgya5KHUodWK-214" value="" style="triangle;whiteSpace=wrap;html=1;rotation=90;direction=west;" vertex="1" parent="1">
          <mxGeometry x="-390" y="600" width="20" height="30" as="geometry" />
        </mxCell>
        <mxCell id="7ZtT5mM6wgya5KHUodWK-410" style="edgeStyle=orthogonalEdgeStyle;rounded=0;orthogonalLoop=1;jettySize=auto;html=1;exitX=1;exitY=0.5;exitDx=0;exitDy=0;entryX=0;entryY=0.5;entryDx=0;entryDy=0;" edge="1" parent="1" source="7ZtT5mM6wgya5KHUodWK-216" target="7ZtT5mM6wgya5KHUodWK-340">
          <mxGeometry relative="1" as="geometry">
            <Array as="points">
              <mxPoint x="-440" y="160" />
              <mxPoint x="390" y="160" />
              <mxPoint x="390" y="150" />
            </Array>
          </mxGeometry>
        </mxCell>
        <mxCell id="7ZtT5mM6wgya5KHUodWK-216" value="" style="triangle;whiteSpace=wrap;html=1;rotation=90;direction=west;" vertex="1" parent="1">
          <mxGeometry x="-450" y="600" width="20" height="30" as="geometry" />
        </mxCell>
        <mxCell id="7ZtT5mM6wgya5KHUodWK-408" style="edgeStyle=orthogonalEdgeStyle;rounded=0;orthogonalLoop=1;jettySize=auto;html=1;exitX=1;exitY=0.5;exitDx=0;exitDy=0;entryX=0;entryY=0.5;entryDx=0;entryDy=0;" edge="1" parent="1" source="7ZtT5mM6wgya5KHUodWK-218" target="7ZtT5mM6wgya5KHUodWK-341">
          <mxGeometry relative="1" as="geometry">
            <Array as="points">
              <mxPoint x="-500" y="140" />
              <mxPoint x="390" y="140" />
              <mxPoint x="390" y="130" />
            </Array>
          </mxGeometry>
        </mxCell>
        <mxCell id="7ZtT5mM6wgya5KHUodWK-218" value="" style="triangle;whiteSpace=wrap;html=1;rotation=90;direction=west;" vertex="1" parent="1">
          <mxGeometry x="-510" y="600" width="20" height="30" as="geometry" />
        </mxCell>
        <mxCell id="7ZtT5mM6wgya5KHUodWK-400" style="edgeStyle=orthogonalEdgeStyle;rounded=0;orthogonalLoop=1;jettySize=auto;html=1;exitX=1;exitY=0.5;exitDx=0;exitDy=0;entryX=1;entryY=0.5;entryDx=0;entryDy=0;" edge="1" parent="1" source="7ZtT5mM6wgya5KHUodWK-220" target="7ZtT5mM6wgya5KHUodWK-329">
          <mxGeometry relative="1" as="geometry" />
        </mxCell>
        <mxCell id="7ZtT5mM6wgya5KHUodWK-220" value="" style="triangle;whiteSpace=wrap;html=1;rotation=90;" vertex="1" parent="1">
          <mxGeometry x="210" y="10" width="20" height="30" as="geometry" />
        </mxCell>
        <mxCell id="7ZtT5mM6wgya5KHUodWK-403" style="edgeStyle=orthogonalEdgeStyle;rounded=0;orthogonalLoop=1;jettySize=auto;html=1;exitX=1;exitY=0.5;exitDx=0;exitDy=0;entryX=1;entryY=0.5;entryDx=0;entryDy=0;" edge="1" parent="1" source="7ZtT5mM6wgya5KHUodWK-222" target="7ZtT5mM6wgya5KHUodWK-325">
          <mxGeometry relative="1" as="geometry" />
        </mxCell>
        <mxCell id="7ZtT5mM6wgya5KHUodWK-406" style="edgeStyle=orthogonalEdgeStyle;rounded=0;orthogonalLoop=1;jettySize=auto;html=1;exitX=1;exitY=0.5;exitDx=0;exitDy=0;entryX=0;entryY=0.5;entryDx=0;entryDy=0;" edge="1" parent="1" source="7ZtT5mM6wgya5KHUodWK-222" target="7ZtT5mM6wgya5KHUodWK-342">
          <mxGeometry relative="1" as="geometry">
            <Array as="points">
              <mxPoint x="-560" y="120" />
              <mxPoint x="390" y="120" />
              <mxPoint x="390" y="110" />
            </Array>
          </mxGeometry>
        </mxCell>
        <mxCell id="7ZtT5mM6wgya5KHUodWK-222" value="" style="triangle;whiteSpace=wrap;html=1;rotation=90;direction=west;" vertex="1" parent="1">
          <mxGeometry x="-570" y="600" width="20" height="30" as="geometry" />
        </mxCell>
        <mxCell id="7ZtT5mM6wgya5KHUodWK-402" style="edgeStyle=orthogonalEdgeStyle;rounded=0;orthogonalLoop=1;jettySize=auto;html=1;exitX=1;exitY=0.5;exitDx=0;exitDy=0;entryX=1;entryY=0.5;entryDx=0;entryDy=0;" edge="1" parent="1" source="7ZtT5mM6wgya5KHUodWK-224" target="7ZtT5mM6wgya5KHUodWK-326">
          <mxGeometry relative="1" as="geometry">
            <Array as="points">
              <mxPoint x="340" y="50" />
              <mxPoint x="330" y="50" />
              <mxPoint x="330" y="530" />
            </Array>
          </mxGeometry>
        </mxCell>
        <mxCell id="7ZtT5mM6wgya5KHUodWK-404" style="edgeStyle=orthogonalEdgeStyle;rounded=0;orthogonalLoop=1;jettySize=auto;html=1;exitX=1;exitY=0.5;exitDx=0;exitDy=0;entryX=0;entryY=0.5;entryDx=0;entryDy=0;" edge="1" parent="1" source="7ZtT5mM6wgya5KHUodWK-224" target="7ZtT5mM6wgya5KHUodWK-343">
          <mxGeometry relative="1" as="geometry">
            <Array as="points">
              <mxPoint x="340" y="50" />
              <mxPoint x="350" y="50" />
              <mxPoint x="350" y="90" />
            </Array>
          </mxGeometry>
        </mxCell>
        <mxCell id="7ZtT5mM6wgya5KHUodWK-224" value="" style="triangle;whiteSpace=wrap;html=1;rotation=90;" vertex="1" parent="1">
          <mxGeometry x="330" y="10" width="20" height="30" as="geometry" />
        </mxCell>
        <mxCell id="7ZtT5mM6wgya5KHUodWK-401" style="edgeStyle=orthogonalEdgeStyle;rounded=0;orthogonalLoop=1;jettySize=auto;html=1;exitX=1;exitY=0.5;exitDx=0;exitDy=0;entryX=1;entryY=0.5;entryDx=0;entryDy=0;" edge="1" parent="1" source="7ZtT5mM6wgya5KHUodWK-226" target="7ZtT5mM6wgya5KHUodWK-327">
          <mxGeometry relative="1" as="geometry" />
        </mxCell>
        <mxCell id="7ZtT5mM6wgya5KHUodWK-226" value="" style="triangle;whiteSpace=wrap;html=1;rotation=90;" vertex="1" parent="1">
          <mxGeometry x="270" y="10" width="20" height="30" as="geometry" />
        </mxCell>
        <mxCell id="7ZtT5mM6wgya5KHUodWK-395" style="edgeStyle=orthogonalEdgeStyle;rounded=0;orthogonalLoop=1;jettySize=auto;html=1;exitX=1;exitY=0.5;exitDx=0;exitDy=0;entryX=1;entryY=0.5;entryDx=0;entryDy=0;" edge="1" parent="1" source="7ZtT5mM6wgya5KHUodWK-228" target="7ZtT5mM6wgya5KHUodWK-331">
          <mxGeometry relative="1" as="geometry" />
        </mxCell>
        <mxCell id="7ZtT5mM6wgya5KHUodWK-398" style="edgeStyle=orthogonalEdgeStyle;rounded=0;orthogonalLoop=1;jettySize=auto;html=1;exitX=1;exitY=0.5;exitDx=0;exitDy=0;entryX=1;entryY=0.5;entryDx=0;entryDy=0;" edge="1" parent="1" source="7ZtT5mM6wgya5KHUodWK-228" target="7ZtT5mM6wgya5KHUodWK-328">
          <mxGeometry relative="1" as="geometry" />
        </mxCell>
        <mxCell id="7ZtT5mM6wgya5KHUodWK-228" value="" style="triangle;whiteSpace=wrap;html=1;rotation=90;" vertex="1" parent="1">
          <mxGeometry x="150" y="10" width="20" height="30" as="geometry" />
        </mxCell>
        <mxCell id="7ZtT5mM6wgya5KHUodWK-394" style="edgeStyle=orthogonalEdgeStyle;rounded=0;orthogonalLoop=1;jettySize=auto;html=1;exitX=1;exitY=0.5;exitDx=0;exitDy=0;entryX=1;entryY=0.5;entryDx=0;entryDy=0;" edge="1" parent="1" source="7ZtT5mM6wgya5KHUodWK-230" target="7ZtT5mM6wgya5KHUodWK-324">
          <mxGeometry relative="1" as="geometry" />
        </mxCell>
        <mxCell id="7ZtT5mM6wgya5KHUodWK-396" style="edgeStyle=orthogonalEdgeStyle;rounded=0;orthogonalLoop=1;jettySize=auto;html=1;exitX=1;exitY=0.5;exitDx=0;exitDy=0;entryX=1;entryY=0.5;entryDx=0;entryDy=0;" edge="1" parent="1" source="7ZtT5mM6wgya5KHUodWK-230" target="7ZtT5mM6wgya5KHUodWK-330">
          <mxGeometry relative="1" as="geometry" />
        </mxCell>
        <mxCell id="7ZtT5mM6wgya5KHUodWK-230" value="" style="triangle;whiteSpace=wrap;html=1;rotation=90;" vertex="1" parent="1">
          <mxGeometry x="90" y="10" width="20" height="30" as="geometry" />
        </mxCell>
        <mxCell id="7ZtT5mM6wgya5KHUodWK-393" style="edgeStyle=orthogonalEdgeStyle;rounded=0;orthogonalLoop=1;jettySize=auto;html=1;exitX=1;exitY=0.5;exitDx=0;exitDy=0;entryX=1;entryY=0.5;entryDx=0;entryDy=0;" edge="1" parent="1" source="7ZtT5mM6wgya5KHUodWK-232" target="7ZtT5mM6wgya5KHUodWK-313">
          <mxGeometry relative="1" as="geometry" />
        </mxCell>
        <mxCell id="7ZtT5mM6wgya5KHUodWK-232" value="" style="triangle;whiteSpace=wrap;html=1;rotation=90;" vertex="1" parent="1">
          <mxGeometry x="30" y="10" width="20" height="30" as="geometry" />
        </mxCell>
        <mxCell id="7ZtT5mM6wgya5KHUodWK-392" style="edgeStyle=orthogonalEdgeStyle;rounded=0;orthogonalLoop=1;jettySize=auto;html=1;exitX=1;exitY=0.5;exitDx=0;exitDy=0;entryX=1;entryY=0.5;entryDx=0;entryDy=0;" edge="1" parent="1" source="7ZtT5mM6wgya5KHUodWK-234" target="7ZtT5mM6wgya5KHUodWK-314">
          <mxGeometry relative="1" as="geometry" />
        </mxCell>
        <mxCell id="7ZtT5mM6wgya5KHUodWK-234" value="" style="triangle;whiteSpace=wrap;html=1;rotation=90;" vertex="1" parent="1">
          <mxGeometry x="-30" y="10" width="20" height="30" as="geometry" />
        </mxCell>
        <mxCell id="7ZtT5mM6wgya5KHUodWK-387" style="edgeStyle=orthogonalEdgeStyle;rounded=0;orthogonalLoop=1;jettySize=auto;html=1;exitX=1;exitY=0.5;exitDx=0;exitDy=0;entryX=1;entryY=0.5;entryDx=0;entryDy=0;" edge="1" parent="1" source="7ZtT5mM6wgya5KHUodWK-236" target="7ZtT5mM6wgya5KHUodWK-131">
          <mxGeometry relative="1" as="geometry" />
        </mxCell>
        <mxCell id="7ZtT5mM6wgya5KHUodWK-390" style="edgeStyle=orthogonalEdgeStyle;rounded=0;orthogonalLoop=1;jettySize=auto;html=1;exitX=1;exitY=0.5;exitDx=0;exitDy=0;entryX=1;entryY=0.5;entryDx=0;entryDy=0;" edge="1" parent="1" source="7ZtT5mM6wgya5KHUodWK-236" target="7ZtT5mM6wgya5KHUodWK-315">
          <mxGeometry relative="1" as="geometry" />
        </mxCell>
        <mxCell id="7ZtT5mM6wgya5KHUodWK-236" value="" style="triangle;whiteSpace=wrap;html=1;rotation=90;" vertex="1" parent="1">
          <mxGeometry x="-90" y="10" width="20" height="30" as="geometry" />
        </mxCell>
        <mxCell id="7ZtT5mM6wgya5KHUodWK-386" style="edgeStyle=orthogonalEdgeStyle;rounded=0;orthogonalLoop=1;jettySize=auto;html=1;exitX=1;exitY=0.5;exitDx=0;exitDy=0;entryX=1;entryY=0.5;entryDx=0;entryDy=0;" edge="1" parent="1" source="7ZtT5mM6wgya5KHUodWK-238" target="7ZtT5mM6wgya5KHUodWK-133">
          <mxGeometry relative="1" as="geometry" />
        </mxCell>
        <mxCell id="7ZtT5mM6wgya5KHUodWK-388" style="edgeStyle=orthogonalEdgeStyle;rounded=0;orthogonalLoop=1;jettySize=auto;html=1;exitX=1;exitY=0.5;exitDx=0;exitDy=0;entryX=1;entryY=0.5;entryDx=0;entryDy=0;" edge="1" parent="1" source="7ZtT5mM6wgya5KHUodWK-238" target="7ZtT5mM6wgya5KHUodWK-316">
          <mxGeometry relative="1" as="geometry" />
        </mxCell>
        <mxCell id="7ZtT5mM6wgya5KHUodWK-238" value="" style="triangle;whiteSpace=wrap;html=1;rotation=90;" vertex="1" parent="1">
          <mxGeometry x="-150" y="10" width="20" height="30" as="geometry" />
        </mxCell>
        <mxCell id="7ZtT5mM6wgya5KHUodWK-385" style="edgeStyle=orthogonalEdgeStyle;rounded=0;orthogonalLoop=1;jettySize=auto;html=1;exitX=1;exitY=0.5;exitDx=0;exitDy=0;entryX=1;entryY=0.5;entryDx=0;entryDy=0;" edge="1" parent="1" source="7ZtT5mM6wgya5KHUodWK-240" target="7ZtT5mM6wgya5KHUodWK-130">
          <mxGeometry relative="1" as="geometry" />
        </mxCell>
        <mxCell id="7ZtT5mM6wgya5KHUodWK-240" value="" style="triangle;whiteSpace=wrap;html=1;rotation=90;" vertex="1" parent="1">
          <mxGeometry x="-210" y="10" width="20" height="30" as="geometry" />
        </mxCell>
        <mxCell id="7ZtT5mM6wgya5KHUodWK-384" style="edgeStyle=orthogonalEdgeStyle;rounded=0;orthogonalLoop=1;jettySize=auto;html=1;exitX=1;exitY=0.5;exitDx=0;exitDy=0;entryX=1;entryY=0.5;entryDx=0;entryDy=0;" edge="1" parent="1" source="7ZtT5mM6wgya5KHUodWK-242" target="7ZtT5mM6wgya5KHUodWK-132">
          <mxGeometry relative="1" as="geometry" />
        </mxCell>
        <mxCell id="7ZtT5mM6wgya5KHUodWK-242" value="" style="triangle;whiteSpace=wrap;html=1;rotation=90;" vertex="1" parent="1">
          <mxGeometry x="-270" y="10" width="20" height="30" as="geometry" />
        </mxCell>
        <mxCell id="7ZtT5mM6wgya5KHUodWK-379" style="edgeStyle=orthogonalEdgeStyle;rounded=0;orthogonalLoop=1;jettySize=auto;html=1;exitX=1;exitY=0.5;exitDx=0;exitDy=0;entryX=1;entryY=0.5;entryDx=0;entryDy=0;" edge="1" parent="1" source="7ZtT5mM6wgya5KHUodWK-244" target="7ZtT5mM6wgya5KHUodWK-136">
          <mxGeometry relative="1" as="geometry" />
        </mxCell>
        <mxCell id="7ZtT5mM6wgya5KHUodWK-440" style="edgeStyle=orthogonalEdgeStyle;rounded=0;orthogonalLoop=1;jettySize=auto;html=1;exitX=1;exitY=0.5;exitDx=0;exitDy=0;entryX=1;entryY=0.5;entryDx=0;entryDy=0;" edge="1" parent="1" source="7ZtT5mM6wgya5KHUodWK-244" target="7ZtT5mM6wgya5KHUodWK-134">
          <mxGeometry relative="1" as="geometry" />
        </mxCell>
        <mxCell id="7ZtT5mM6wgya5KHUodWK-244" value="" style="triangle;whiteSpace=wrap;html=1;rotation=90;" vertex="1" parent="1">
          <mxGeometry x="-330" y="10" width="20" height="30" as="geometry" />
        </mxCell>
        <mxCell id="7ZtT5mM6wgya5KHUodWK-378" style="edgeStyle=orthogonalEdgeStyle;rounded=0;orthogonalLoop=1;jettySize=auto;html=1;exitX=1;exitY=0.5;exitDx=0;exitDy=0;entryX=1;entryY=0.5;entryDx=0;entryDy=0;" edge="1" parent="1" source="7ZtT5mM6wgya5KHUodWK-246" target="7ZtT5mM6wgya5KHUodWK-137">
          <mxGeometry relative="1" as="geometry" />
        </mxCell>
        <mxCell id="7ZtT5mM6wgya5KHUodWK-380" style="edgeStyle=orthogonalEdgeStyle;rounded=0;orthogonalLoop=1;jettySize=auto;html=1;exitX=1;exitY=0.5;exitDx=0;exitDy=0;entryX=1;entryY=0.5;entryDx=0;entryDy=0;" edge="1" parent="1" source="7ZtT5mM6wgya5KHUodWK-246" target="7ZtT5mM6wgya5KHUodWK-135">
          <mxGeometry relative="1" as="geometry" />
        </mxCell>
        <mxCell id="7ZtT5mM6wgya5KHUodWK-246" value="" style="triangle;whiteSpace=wrap;html=1;rotation=90;" vertex="1" parent="1">
          <mxGeometry x="-390" y="10" width="20" height="30" as="geometry" />
        </mxCell>
        <mxCell id="7ZtT5mM6wgya5KHUodWK-377" style="edgeStyle=orthogonalEdgeStyle;rounded=0;orthogonalLoop=1;jettySize=auto;html=1;exitX=1;exitY=0.5;exitDx=0;exitDy=0;entryX=1;entryY=0.5;entryDx=0;entryDy=0;" edge="1" parent="1" source="7ZtT5mM6wgya5KHUodWK-248" target="7ZtT5mM6wgya5KHUodWK-138">
          <mxGeometry relative="1" as="geometry" />
        </mxCell>
        <mxCell id="7ZtT5mM6wgya5KHUodWK-248" value="" style="triangle;whiteSpace=wrap;html=1;rotation=90;" vertex="1" parent="1">
          <mxGeometry x="-450" y="10" width="20" height="30" as="geometry" />
        </mxCell>
        <mxCell id="7ZtT5mM6wgya5KHUodWK-313" value="re [32]" style="text;html=1;align=center;verticalAlign=middle;whiteSpace=wrap;rounded=0;" vertex="1" parent="1">
          <mxGeometry x="-690" y="380" width="60" height="20" as="geometry" />
        </mxCell>
        <mxCell id="7ZtT5mM6wgya5KHUodWK-314" value="re [33]" style="text;html=1;align=center;verticalAlign=middle;whiteSpace=wrap;rounded=0;" vertex="1" parent="1">
          <mxGeometry x="-690" y="360" width="60" height="20" as="geometry" />
        </mxCell>
        <mxCell id="7ZtT5mM6wgya5KHUodWK-315" value="re [34]" style="text;html=1;align=center;verticalAlign=middle;whiteSpace=wrap;rounded=0;" vertex="1" parent="1">
          <mxGeometry x="-690" y="340" width="60" height="20" as="geometry" />
        </mxCell>
        <mxCell id="7ZtT5mM6wgya5KHUodWK-316" value="re [35]" style="text;html=1;align=center;verticalAlign=middle;whiteSpace=wrap;rounded=0;" vertex="1" parent="1">
          <mxGeometry x="-690" y="320" width="60" height="20" as="geometry" />
        </mxCell>
        <mxCell id="7ZtT5mM6wgya5KHUodWK-324" value="re [31]" style="text;html=1;align=center;verticalAlign=middle;whiteSpace=wrap;rounded=0;" vertex="1" parent="1">
          <mxGeometry x="-690" y="400" width="60" height="20" as="geometry" />
        </mxCell>
        <mxCell id="7ZtT5mM6wgya5KHUodWK-325" value="re [24]" style="text;html=1;align=center;verticalAlign=middle;whiteSpace=wrap;rounded=0;" vertex="1" parent="1">
          <mxGeometry x="-690" y="540" width="60" height="20" as="geometry" />
        </mxCell>
        <mxCell id="7ZtT5mM6wgya5KHUodWK-326" value="re [25]" style="text;html=1;align=center;verticalAlign=middle;whiteSpace=wrap;rounded=0;" vertex="1" parent="1">
          <mxGeometry x="-690" y="520" width="60" height="20" as="geometry" />
        </mxCell>
        <mxCell id="7ZtT5mM6wgya5KHUodWK-327" value="re [26]" style="text;html=1;align=center;verticalAlign=middle;whiteSpace=wrap;rounded=0;" vertex="1" parent="1">
          <mxGeometry x="-690" y="500" width="60" height="20" as="geometry" />
        </mxCell>
        <mxCell id="7ZtT5mM6wgya5KHUodWK-328" value="re [28]" style="text;html=1;align=center;verticalAlign=middle;whiteSpace=wrap;rounded=0;" vertex="1" parent="1">
          <mxGeometry x="-690" y="460" width="60" height="20" as="geometry" />
        </mxCell>
        <mxCell id="7ZtT5mM6wgya5KHUodWK-329" value="re [27]" style="text;html=1;align=center;verticalAlign=middle;whiteSpace=wrap;rounded=0;" vertex="1" parent="1">
          <mxGeometry x="-690" y="480" width="60" height="20" as="geometry" />
        </mxCell>
        <mxCell id="7ZtT5mM6wgya5KHUodWK-330" value="re [29]" style="text;html=1;align=center;verticalAlign=middle;whiteSpace=wrap;rounded=0;" vertex="1" parent="1">
          <mxGeometry x="-690" y="440" width="60" height="20" as="geometry" />
        </mxCell>
        <mxCell id="7ZtT5mM6wgya5KHUodWK-331" value="re [30]" style="text;html=1;align=center;verticalAlign=middle;whiteSpace=wrap;rounded=0;" vertex="1" parent="1">
          <mxGeometry x="-690" y="420" width="60" height="20" as="geometry" />
        </mxCell>
        <mxCell id="7ZtT5mM6wgya5KHUodWK-332" value="re [14]" style="text;html=1;align=center;verticalAlign=middle;whiteSpace=wrap;rounded=0;" vertex="1" parent="1">
          <mxGeometry x="410" y="260" width="60" height="20" as="geometry" />
        </mxCell>
        <mxCell id="7ZtT5mM6wgya5KHUodWK-333" value="re [12]" style="text;html=1;align=center;verticalAlign=middle;whiteSpace=wrap;rounded=0;" vertex="1" parent="1">
          <mxGeometry x="410" y="300" width="60" height="20" as="geometry" />
        </mxCell>
        <mxCell id="7ZtT5mM6wgya5KHUodWK-334" value="re [15]" style="text;html=1;align=center;verticalAlign=middle;whiteSpace=wrap;rounded=0;" vertex="1" parent="1">
          <mxGeometry x="410" y="240" width="60" height="20" as="geometry" />
        </mxCell>
        <mxCell id="7ZtT5mM6wgya5KHUodWK-335" value="re [13]" style="text;html=1;align=center;verticalAlign=middle;whiteSpace=wrap;rounded=0;" vertex="1" parent="1">
          <mxGeometry x="410" y="280" width="60" height="20" as="geometry" />
        </mxCell>
        <mxCell id="7ZtT5mM6wgya5KHUodWK-336" value="re [16]" style="text;html=1;align=center;verticalAlign=middle;whiteSpace=wrap;rounded=0;" vertex="1" parent="1">
          <mxGeometry x="410" y="220" width="60" height="20" as="geometry" />
        </mxCell>
        <mxCell id="7ZtT5mM6wgya5KHUodWK-337" value="re [17]" style="text;html=1;align=center;verticalAlign=middle;whiteSpace=wrap;rounded=0;" vertex="1" parent="1">
          <mxGeometry x="410" y="200" width="60" height="20" as="geometry" />
        </mxCell>
        <mxCell id="7ZtT5mM6wgya5KHUodWK-338" value="re [18]" style="text;html=1;align=center;verticalAlign=middle;whiteSpace=wrap;rounded=0;" vertex="1" parent="1">
          <mxGeometry x="410" y="180" width="60" height="20" as="geometry" />
        </mxCell>
        <mxCell id="7ZtT5mM6wgya5KHUodWK-339" value="re [19]" style="text;html=1;align=center;verticalAlign=middle;whiteSpace=wrap;rounded=0;" vertex="1" parent="1">
          <mxGeometry x="410" y="160" width="60" height="20" as="geometry" />
        </mxCell>
        <mxCell id="7ZtT5mM6wgya5KHUodWK-340" value="re [20]" style="text;html=1;align=center;verticalAlign=middle;whiteSpace=wrap;rounded=0;" vertex="1" parent="1">
          <mxGeometry x="410" y="140" width="60" height="20" as="geometry" />
        </mxCell>
        <mxCell id="7ZtT5mM6wgya5KHUodWK-341" value="re [21]" style="text;html=1;align=center;verticalAlign=middle;whiteSpace=wrap;rounded=0;" vertex="1" parent="1">
          <mxGeometry x="410" y="120" width="60" height="20" as="geometry" />
        </mxCell>
        <mxCell id="7ZtT5mM6wgya5KHUodWK-342" value="re [22]" style="text;html=1;align=center;verticalAlign=middle;whiteSpace=wrap;rounded=0;" vertex="1" parent="1">
          <mxGeometry x="410" y="100" width="60" height="20" as="geometry" />
        </mxCell>
        <mxCell id="7ZtT5mM6wgya5KHUodWK-343" value="re [23]" style="text;html=1;align=center;verticalAlign=middle;whiteSpace=wrap;rounded=0;" vertex="1" parent="1">
          <mxGeometry x="410" y="80" width="60" height="20" as="geometry" />
        </mxCell>
        <mxCell id="7ZtT5mM6wgya5KHUodWK-344" value="re [8]" style="text;html=1;align=center;verticalAlign=middle;whiteSpace=wrap;rounded=0;" vertex="1" parent="1">
          <mxGeometry x="410" y="380" width="60" height="20" as="geometry" />
        </mxCell>
        <mxCell id="7ZtT5mM6wgya5KHUodWK-345" value="re [9]" style="text;html=1;align=center;verticalAlign=middle;whiteSpace=wrap;rounded=0;" vertex="1" parent="1">
          <mxGeometry x="410" y="360" width="60" height="20" as="geometry" />
        </mxCell>
        <mxCell id="7ZtT5mM6wgya5KHUodWK-346" value="re [10]" style="text;html=1;align=center;verticalAlign=middle;whiteSpace=wrap;rounded=0;" vertex="1" parent="1">
          <mxGeometry x="410" y="340" width="60" height="20" as="geometry" />
        </mxCell>
        <mxCell id="7ZtT5mM6wgya5KHUodWK-347" value="re [11]" style="text;html=1;align=center;verticalAlign=middle;whiteSpace=wrap;rounded=0;" vertex="1" parent="1">
          <mxGeometry x="410" y="320" width="60" height="20" as="geometry" />
        </mxCell>
        <mxCell id="7ZtT5mM6wgya5KHUodWK-348" value="re [7]" style="text;html=1;align=center;verticalAlign=middle;whiteSpace=wrap;rounded=0;" vertex="1" parent="1">
          <mxGeometry x="410" y="400" width="60" height="20" as="geometry" />
        </mxCell>
        <mxCell id="7ZtT5mM6wgya5KHUodWK-349" value="re [0]" style="text;html=1;align=center;verticalAlign=middle;whiteSpace=wrap;rounded=0;" vertex="1" parent="1">
          <mxGeometry x="410" y="540" width="60" height="20" as="geometry" />
        </mxCell>
        <mxCell id="7ZtT5mM6wgya5KHUodWK-350" value="re [1]" style="text;html=1;align=center;verticalAlign=middle;whiteSpace=wrap;rounded=0;" vertex="1" parent="1">
          <mxGeometry x="410" y="520" width="60" height="20" as="geometry" />
        </mxCell>
        <mxCell id="7ZtT5mM6wgya5KHUodWK-351" value="re [2]" style="text;html=1;align=center;verticalAlign=middle;whiteSpace=wrap;rounded=0;" vertex="1" parent="1">
          <mxGeometry x="410" y="500" width="60" height="20" as="geometry" />
        </mxCell>
        <mxCell id="7ZtT5mM6wgya5KHUodWK-352" value="re [4]" style="text;html=1;align=center;verticalAlign=middle;whiteSpace=wrap;rounded=0;" vertex="1" parent="1">
          <mxGeometry x="410" y="460" width="60" height="20" as="geometry" />
        </mxCell>
        <mxCell id="7ZtT5mM6wgya5KHUodWK-353" value="re [3]" style="text;html=1;align=center;verticalAlign=middle;whiteSpace=wrap;rounded=0;" vertex="1" parent="1">
          <mxGeometry x="410" y="480" width="60" height="20" as="geometry" />
        </mxCell>
        <mxCell id="7ZtT5mM6wgya5KHUodWK-354" value="re [5]" style="text;html=1;align=center;verticalAlign=middle;whiteSpace=wrap;rounded=0;" vertex="1" parent="1">
          <mxGeometry x="410" y="440" width="60" height="20" as="geometry" />
        </mxCell>
        <mxCell id="7ZtT5mM6wgya5KHUodWK-355" value="re [6]" style="text;html=1;align=center;verticalAlign=middle;whiteSpace=wrap;rounded=0;" vertex="1" parent="1">
          <mxGeometry x="410" y="420" width="60" height="20" as="geometry" />
        </mxCell>
        <mxCell id="7ZtT5mM6wgya5KHUodWK-381" value="" style="shape=waypoint;sketch=0;fillStyle=solid;size=6;pointerEvents=1;points=[];fillColor=none;resizable=0;rotatable=0;perimeter=centerPerimeter;snapToPoint=1;" vertex="1" parent="1">
          <mxGeometry x="-390" y="160" width="20" height="20" as="geometry" />
        </mxCell>
        <mxCell id="7ZtT5mM6wgya5KHUodWK-383" value="" style="shape=waypoint;sketch=0;fillStyle=solid;size=6;pointerEvents=1;points=[];fillColor=none;resizable=0;rotatable=0;perimeter=centerPerimeter;snapToPoint=1;" vertex="1" parent="1">
          <mxGeometry x="-330" y="180" width="20" height="20" as="geometry" />
        </mxCell>
        <mxCell id="7ZtT5mM6wgya5KHUodWK-389" value="" style="shape=waypoint;sketch=0;fillStyle=solid;size=6;pointerEvents=1;points=[];fillColor=none;resizable=0;rotatable=0;perimeter=centerPerimeter;snapToPoint=1;" vertex="1" parent="1">
          <mxGeometry x="-150" y="280" width="20" height="20" as="geometry" />
        </mxCell>
        <mxCell id="7ZtT5mM6wgya5KHUodWK-391" value="" style="shape=waypoint;sketch=0;fillStyle=solid;size=6;pointerEvents=1;points=[];fillColor=none;resizable=0;rotatable=0;perimeter=centerPerimeter;snapToPoint=1;" vertex="1" parent="1">
          <mxGeometry x="-90" y="300" width="20" height="20" as="geometry" />
        </mxCell>
        <mxCell id="7ZtT5mM6wgya5KHUodWK-397" value="" style="shape=waypoint;sketch=0;fillStyle=solid;size=6;pointerEvents=1;points=[];fillColor=none;resizable=0;rotatable=0;perimeter=centerPerimeter;snapToPoint=1;" vertex="1" parent="1">
          <mxGeometry x="90" y="400" width="20" height="20" as="geometry" />
        </mxCell>
        <mxCell id="7ZtT5mM6wgya5KHUodWK-399" value="" style="shape=waypoint;sketch=0;fillStyle=solid;size=6;pointerEvents=1;points=[];fillColor=none;resizable=0;rotatable=0;perimeter=centerPerimeter;snapToPoint=1;" vertex="1" parent="1">
          <mxGeometry x="150" y="420" width="20" height="20" as="geometry" />
        </mxCell>
        <mxCell id="7ZtT5mM6wgya5KHUodWK-405" value="" style="shape=waypoint;sketch=0;fillStyle=solid;size=6;pointerEvents=1;points=[];fillColor=none;resizable=0;rotatable=0;perimeter=centerPerimeter;snapToPoint=1;" vertex="1" parent="1">
          <mxGeometry x="330" y="40" width="20" height="20" as="geometry" />
        </mxCell>
        <mxCell id="7ZtT5mM6wgya5KHUodWK-407" value="" style="shape=waypoint;sketch=0;fillStyle=solid;size=6;pointerEvents=1;points=[];fillColor=none;resizable=0;rotatable=0;perimeter=centerPerimeter;snapToPoint=1;" vertex="1" parent="1">
          <mxGeometry x="-570" y="540" width="20" height="20" as="geometry" />
        </mxCell>
        <mxCell id="7ZtT5mM6wgya5KHUodWK-414" value="" style="shape=waypoint;sketch=0;fillStyle=solid;size=6;pointerEvents=1;points=[];fillColor=none;resizable=0;rotatable=0;perimeter=centerPerimeter;snapToPoint=1;" vertex="1" parent="1">
          <mxGeometry x="-380" y="210" width="20" height="20" as="geometry" />
        </mxCell>
        <mxCell id="7ZtT5mM6wgya5KHUodWK-417" value="" style="shape=waypoint;sketch=0;fillStyle=solid;size=6;pointerEvents=1;points=[];fillColor=none;resizable=0;rotatable=0;perimeter=centerPerimeter;snapToPoint=1;" vertex="1" parent="1">
          <mxGeometry x="-320" y="230" width="20" height="20" as="geometry" />
        </mxCell>
        <mxCell id="7ZtT5mM6wgya5KHUodWK-423" value="" style="shape=waypoint;sketch=0;fillStyle=solid;size=6;pointerEvents=1;points=[];fillColor=none;resizable=0;rotatable=0;perimeter=centerPerimeter;snapToPoint=1;" vertex="1" parent="1">
          <mxGeometry x="-140" y="330" width="20" height="20" as="geometry" />
        </mxCell>
        <mxCell id="7ZtT5mM6wgya5KHUodWK-425" value="" style="shape=waypoint;sketch=0;fillStyle=solid;size=6;pointerEvents=1;points=[];fillColor=none;resizable=0;rotatable=0;perimeter=centerPerimeter;snapToPoint=1;" vertex="1" parent="1">
          <mxGeometry x="-80" y="350" width="20" height="20" as="geometry" />
        </mxCell>
        <mxCell id="7ZtT5mM6wgya5KHUodWK-431" value="" style="shape=waypoint;sketch=0;fillStyle=solid;size=6;pointerEvents=1;points=[];fillColor=none;resizable=0;rotatable=0;perimeter=centerPerimeter;snapToPoint=1;" vertex="1" parent="1">
          <mxGeometry x="100" y="450" width="20" height="20" as="geometry" />
        </mxCell>
        <mxCell id="7ZtT5mM6wgya5KHUodWK-433" value="" style="shape=waypoint;sketch=0;fillStyle=solid;size=6;pointerEvents=1;points=[];fillColor=none;resizable=0;rotatable=0;perimeter=centerPerimeter;snapToPoint=1;" vertex="1" parent="1">
          <mxGeometry x="160" y="470" width="20" height="20" as="geometry" />
        </mxCell>
        <mxCell id="7ZtT5mM6wgya5KHUodWK-437" value="" style="shape=waypoint;sketch=0;fillStyle=solid;size=6;pointerEvents=1;points=[];fillColor=none;resizable=0;rotatable=0;perimeter=centerPerimeter;snapToPoint=1;" vertex="1" parent="1">
          <mxGeometry x="330" y="530" width="20" height="20" as="geometry" />
        </mxCell>
        <mxCell id="7ZtT5mM6wgya5KHUodWK-439" value="" style="shape=waypoint;sketch=0;fillStyle=solid;size=6;pointerEvents=1;points=[];fillColor=none;resizable=0;rotatable=0;perimeter=centerPerimeter;snapToPoint=1;" vertex="1" parent="1">
          <mxGeometry x="-570" y="100" width="20" height="20" as="geometry" />
        </mxCell>
      </root>
    </mxGraphModel>
  </diagram>
</mxfile>
